<?xml version="1.0" encoding="UTF-8"?>
<svg width="103px" height="56px" viewBox="0 0 103 56" version="1.1" xmlns="http://www.w3.org/2000/svg" xmlns:xlink="http://www.w3.org/1999/xlink">
    <!-- Generator: Sketch 46.2 (44496) - http://www.bohemiancoding.com/sketch -->
    <title>Logo</title>
    <desc>Created with Sketch.</desc>
    <defs>
        <polygon id="path-1" points="0 56 102.856 56 102.856 0.818 0 0.818"></polygon>
    </defs>
    <g id="Page-1" stroke="none" stroke-width="1" fill="none" fill-rule="evenodd">
        <g id="Logo" transform="translate(0.000000, -1.000000)">
            <polygon id="Fill-1" fill="#000000" points="0.5706 21.6738 0.5706 24.6428 3.9006 24.6428 3.9006 35.2218 7.2306 35.2218 7.2306 24.6428 10.5606 24.6428 10.5606 21.6738"></polygon>
            <path d="M18.1934,26.8115 L16.9754,30.4265 L19.3354,30.4265 L18.1934,26.8115 Z M20.8384,35.2215 L20.2104,33.2055 L16.0434,33.2055 L15.3774,35.2215 L11.8954,35.2215 L16.8234,21.6735 L19.3924,21.6735 L24.3204,35.2215 L20.8384,35.2215 Z" id="Fill-2" fill="#000000"></path>
            <polygon id="Fill-3" fill="#000000" points="27.5977 35.2216 27.5977 21.6736 30.9277 21.6736 30.9277 32.2526 36.6167 32.2526 36.6167 35.2216"></polygon>
            <polygon id="Fill-4" fill="#000000" points="40.4648 35.2216 40.4648 21.6736 49.6738 21.6736 49.6738 24.6426 43.7948 24.6426 43.7948 26.9066 48.8178 26.9066 48.8178 29.8746 43.7948 29.8746 43.7948 32.2526 49.6738 32.2526 49.6738 35.2216"></polygon>
            <polygon id="Fill-5" fill="#000000" points="61.6089 35.2216 57.2709 28.4096 57.2709 35.2216 53.9409 35.2216 53.9409 21.6736 56.8519 21.6736 61.1909 28.4866 61.1909 21.6736 64.5199 21.6736 64.5199 35.2216"></polygon>
            <polygon id="Fill-6" fill="#000000" points="75.0288 24.6425 75.0288 35.2215 71.6988 35.2215 71.6988 24.6425 68.3688 24.6425 68.3688 21.6735 78.3588 21.6735 78.3588 24.6425"></polygon>
            <path d="M4.9284,42.5196 L0.0004,56.0676 L3.4824,56.0676 L4.1484,54.0506 L8.3154,54.0506 L8.9434,56.0676 L12.4254,56.0676 L7.4974,42.5196 L4.9284,42.5196 Z M6.2984,47.6566 L7.4404,51.2726 L5.0804,51.2726 L6.2984,47.6566 Z" id="Fill-7" fill="#000000"></path>
            <g id="Group-22" transform="translate(0.000000, 0.181600)">
                <path d="M22.0957,46.0674 C21.7917,45.6104 21.3347,45.3064 20.4977,45.3064 L19.0327,45.3064 L19.0327,52.9174 L20.4977,52.9174 C21.3347,52.9174 21.7917,52.6134 22.0957,52.1564 C22.3627,51.7754 22.4577,51.4144 22.4577,49.1124 C22.4577,46.8284 22.3627,46.4484 22.0957,46.0674 Z M24.3797,54.5534 C23.4467,55.4864 22.1337,55.8854 20.7257,55.8854 L15.7027,55.8854 L15.7027,42.3384 L20.7257,42.3384 C22.1337,42.3384 23.4467,42.7374 24.3797,43.6704 C25.9587,45.2494 25.7867,46.9804 25.7867,49.1124 C25.7867,51.2434 25.9587,52.9744 24.3797,54.5534 Z" id="Fill-8" fill="#000000"></path>
                <polygon id="Fill-10" fill="#000000" points="35.3818 55.8857 32.9078 55.8857 28.4368 42.3377 31.8808 42.3377 34.1638 49.9107 36.4088 42.3377 39.8718 42.3377"></polygon>
                <mask id="mask-2" fill="white">
                    <use xlink:href="#path-1"></use>
                </mask>
                <g id="Clip-13"></g>
                <polygon id="Fill-12" fill="#000000" mask="url(#mask-2)" points="43.15 55.886 46.48 55.886 46.48 42.338 43.15 42.338"></polygon>
                <path d="M54.9873,56 C52.9133,56 51.2203,55.619 49.8503,54.211 L51.9813,52.08 C52.6853,52.784 53.9223,53.031 55.0063,53.031 C56.3193,53.031 56.9473,52.594 56.9473,51.813 C56.9473,51.49 56.8713,51.224 56.6813,51.015 C56.5093,50.844 56.2243,50.71 55.7863,50.653 L54.1503,50.425 C52.9513,50.254 52.0383,49.854 51.4293,49.226 C50.8013,48.579 50.4973,47.666 50.4973,46.505 C50.4973,44.031 52.3623,42.224 55.4443,42.224 C57.3843,42.224 58.8503,42.681 60.0103,43.841 L57.9183,45.935 C57.0613,45.078 55.9393,45.135 55.3493,45.135 C54.1883,45.135 53.7123,45.801 53.7123,46.391 C53.7123,46.562 53.7693,46.81 53.9793,47.019 C54.1503,47.19 54.4353,47.361 54.9113,47.418 L56.5483,47.646 C57.7653,47.818 58.6403,48.198 59.2113,48.77 C59.9343,49.474 60.2203,50.481 60.2203,51.737 C60.2203,54.497 57.8413,56 54.9873,56" id="Fill-14" fill="#000000" mask="url(#mask-2)"></path>
                <path d="M70.3662,45.7822 C70.1182,45.4592 69.6432,45.1922 69.0342,45.1922 C68.4252,45.1922 67.9492,45.4592 67.7022,45.7822 C67.3982,46.1812 67.2072,46.6382 67.2072,49.1122 C67.2072,51.5862 67.3982,52.0232 67.7022,52.4232 C67.9492,52.7462 68.4252,53.0312 69.0342,53.0312 C69.6432,53.0312 70.1182,52.7462 70.3662,52.4232 C70.6702,52.0232 70.8612,51.5862 70.8612,49.1122 C70.8612,46.6382 70.6702,46.1812 70.3662,45.7822 M72.8212,54.4772 C71.8312,55.4672 70.6892,56.0002 69.0342,56.0002 C67.3792,56.0002 66.2372,55.4672 65.2472,54.4772 C63.8212,53.0512 63.8772,51.1472 63.8772,49.1122 C63.8772,47.0762 63.8212,45.1732 65.2472,43.7462 C66.2372,42.7572 67.3792,42.2232 69.0342,42.2232 C70.6892,42.2232 71.8312,42.7572 72.8212,43.7462 C74.2472,45.1732 74.1912,47.0762 74.1912,49.1122 C74.1912,51.1472 74.2472,53.0512 72.8212,54.4772" id="Fill-15" fill="#000000" mask="url(#mask-2)"></path>
                <path d="M83.6143,45.3252 L81.7303,45.3252 L81.7303,48.0652 L83.6143,48.0652 C84.5283,48.0652 85.0603,47.3992 85.0603,46.6952 C85.0603,45.9912 84.5283,45.3252 83.6143,45.3252 L83.6143,45.3252 Z M85.2503,55.8862 L82.8533,50.8442 L81.7303,50.8442 L81.7303,55.8862 L78.4013,55.8862 L78.4013,42.3382 L83.7663,42.3382 C86.7733,42.3382 88.3903,44.4692 88.3903,46.6952 C88.3903,48.5412 87.2483,49.7022 86.1833,50.2342 L89.1133,55.8862 L85.2503,55.8862 Z" id="Fill-16" fill="#000000" mask="url(#mask-2)"></path>
                <polygon id="Fill-17" fill="#000000" mask="url(#mask-2)" points="98.7656 50.3682 98.7656 55.8862 95.4356 55.8862 95.4356 50.3682 91.3446 42.3382 94.9786 42.3382 97.1106 47.2092 99.2226 42.3382 102.8566 42.3382"></polygon>
                <polygon id="Fill-18" fill="#FAD702" mask="url(#mask-2)" points="7.2305 3.7871 7.2305 14.3661 3.9005 14.3661 3.9005 3.7871 0.5705 3.7871 0.5705 0.8181 10.5605 0.8181 10.5605 3.7871"></polygon>
                <path d="M19.6216,3.8057 L17.7376,3.8057 L17.7376,6.5457 L19.6216,6.5457 C20.5356,6.5457 21.0676,5.8797 21.0676,5.1757 C21.0676,4.4717 20.5356,3.8057 19.6216,3.8057 L19.6216,3.8057 Z M21.2576,14.3667 L18.8606,9.3247 L17.7376,9.3247 L17.7376,14.3667 L14.4086,14.3667 L14.4086,0.8187 L19.7736,0.8187 C22.7806,0.8187 24.3976,2.9497 24.3976,5.1757 C24.3976,7.0217 23.2556,8.1827 22.1906,8.7147 L25.1206,14.3667 L21.2576,14.3667 Z" id="Fill-19" fill="#FAD702" mask="url(#mask-2)"></path>
                <path d="M33.6118,14.4805 C30.7958,14.4805 28.4928,12.5775 28.4928,9.6095 L28.4928,0.8185 L31.8228,0.8185 L31.8228,9.5335 C31.8228,10.7895 32.5078,11.5115 33.6118,11.5115 C34.7158,11.5115 35.4388,10.7895 35.4388,9.5335 L35.4388,0.8185 L38.7678,0.8185 L38.7678,9.6095 C38.7678,12.5775 36.4278,14.4805 33.6118,14.4805" id="Fill-20" fill="#FAD702" mask="url(#mask-2)"></path>
                <polygon id="Fill-21" fill="#FAD702" mask="url(#mask-2)" points="43.188 14.3662 43.188 0.8182 52.397 0.8182 52.397 3.7872 46.518 3.7872 46.518 6.0512 51.541 6.0512 51.541 9.0192 46.518 9.0192 46.518 11.3972 52.397 11.3972 52.397 14.3662"></polygon>
            </g>
        </g>
    </g>
</svg>