<svg width="62" height="62" viewBox="0 0 62 62" xmlns="http://www.w3.org/2000/svg"><title>Group</title><g fill="none" fill-rule="evenodd"><circle fill="#FAD702" cx="31" cy="31" r="31"/><path d="M44.43 17.82v1.914c-2.709.99-4.831 2.546-6.367 4.668-1.537 2.123-2.305 4.33-2.305 6.621 0 .495.078.86.234 1.094.104.156.222.235.352.235.13 0 .325-.092.586-.274.833-.599 1.888-.898 3.164-.898 1.484 0 2.8.605 3.945 1.816 1.146 1.211 1.719 2.65 1.719 4.316 0 1.745-.658 3.282-1.973 4.61-1.315 1.328-2.91 1.992-4.785 1.992-2.188 0-4.076-.898-5.664-2.695-1.589-1.797-2.383-4.206-2.383-7.227 0-3.515 1.08-6.666 3.242-9.453 2.162-2.786 5.573-5.026 10.235-6.719zm-18.79 0v1.914c-2.708.99-4.83 2.546-6.367 4.668-1.536 2.123-2.304 4.33-2.304 6.621 0 .495.078.86.234 1.094.104.156.221.235.352.235.13 0 .325-.092.586-.274.833-.599 1.888-.898 3.164-.898 1.484 0 2.8.605 3.945 1.816 1.146 1.211 1.719 2.65 1.719 4.316 0 1.745-.658 3.282-1.973 4.61-1.315 1.328-2.91 1.992-4.785 1.992-2.188 0-4.076-.898-5.664-2.695-1.589-1.797-2.383-4.206-2.383-7.227 0-3.515 1.08-6.666 3.242-9.453 2.162-2.786 5.573-5.026 10.235-6.719z" fill="#000"/></g></svg>