<svg id="Layer_1" data-name="Layer 1" xmlns="http://www.w3.org/2000/svg" viewBox="0 0 98.482 26.001"><defs><style>.cls-1{fill:#231f20}</style></defs><title>foundation-logo</title><path class="cls-1" d="M60.52 20.775h-1.817v-.722h4.46v.72h-1.817v5.146h-.826zm6.87-.792h.116l2.526 5.937h-.862l-.35-.873h-2.793l-.35.873h-.8zm1.175 4.436l-.838-2.12a8.125 8.125 0 0 1-.29-.91s-.14.55-.28.91l-.86 2.12zm4.377-4.37h.828v5.144h2.736v.72h-3.564zm6.54 0h3.715v.72H80.31v2.4h2.538v.69H80.31v1.35h3v.71h-3.83zm8.256 2.386a7.72 7.72 0 0 1-.63-.816 7.853 7.853 0 0 1 .082.99v3.306h-.768V19.98h.116l3.2 3.527a7.4 7.4 0 0 1 .64.826s-.058-.536-.058-.978V20.05h.768V26h-.118zm8.102-1.666h-1.817v-.72h4.46v.72H96.67v5.145h-.83zm-82.575-7.35l-4.27-2.452 4.253-2.56 4.227 2.56-4.21 2.45zm0 5.45l-4.27-2.57v-4.826l4.27 2.454v4.94zm-9.003-5.45L0 10.85l4.243-2.452 4.245 2.573-4.226 2.45zm0 5.45L0 16.3v-4.943l4.262 2.574v4.946zM8.488 5.016L4.243 2.44 8.506 0l4.228 2.56-4.246 2.454zm0 5.45L4.243 7.892V2.946L8.488 5.52v4.944zM30.484 7.09h-.75c-1.015 0-1.375.374-1.375 1.172h1.42v2.03h-1.42v6.048h-2.44v-6.047h-1.3V8.26h1.3c-.05-2.405 1.56-3.406 3.97-3.406zm-.68 5.094a4.482 4.482 0 0 1 8.955 0 4.482 4.482 0 0 1-8.96 0zm4.47 2.016a2.016 2.016 0 1 0-2.03-2.016A2.048 2.048 0 0 0 34.27 14.2zm10.01-5.923l2.437-.03v8.093h-2.25v-1.22h-.03a2.22 2.22 0 0 1-2.09 1.345c-2.2 0-2.94-1.406-2.94-3.406V8.27l2.44-.03v4.64c0 .938.484 1.39 1.22 1.39s1.217-.452 1.217-1.39zm5.526.843h.03a2.467 2.467 0 0 1 2.095-1.22c2.2 0 2.937 1.408 2.937 3.408v5.032h-2.438v-4.86c0-.938-.485-1.39-1.22-1.39s-1.218.452-1.218 1.39v4.86h-2.438V8.247h2.25zm11.91-3.796l2.438.006v11.01h-2.282v-1.027h-.03a2.427 2.427 0 0 1-2.282 1.157 4.116 4.116 0 0 1-4.1-4.173 4.227 4.227 0 0 1 4.1-4.392 3.166 3.166 0 0 1 2.157.813zm-1.86 8.954a2.1 2.1 0 1 0-1.953-2.094 2.037 2.037 0 0 0 1.954 2.094zm5.767-5.965a7.588 7.588 0 0 1 2.555-.414c2 0 3.375.823 3.375 2.81v5.623h-2.124v-.8H69.4a2.16 2.16 0 0 1-2 .922 2.64 2.64 0 0 1-2.8-2.908 2.685 2.685 0 0 1 2.877-2.64 3.242 3.242 0 0 1 1.812.61 1.238 1.238 0 0 0 .01-.25c0-1.11-.516-1.346-1.563-1.346a5.21 5.21 0 0 0-2.11.486zm2.46 6.275a1.066 1.066 0 1 0-1.217-1.06 1.092 1.092 0 0 0 1.218 1.062zm3.828-4.295l.515-2.032h.765V6.67l2.44-.937v2.53h1.39v2.034h-1.39v2.812c0 .8.608 1.013 1.3 1.013a2.226 2.226 0 0 0 .64-.094l-.7 2.406a2.723 2.723 0 0 1-.374.032c-2.15 0-3.3-1.03-3.3-3.175v-3zm8.865 6.047h-2.44V8.247h2.437zm.578-4.156a4.482 4.482 0 0 1 8.954 0 4.482 4.482 0 0 1-8.954 0zm4.47 2.016a2.016 2.016 0 1 0-2.032-2.016 2.047 2.047 0 0 0 2.032 2.015zm7.585-5.08h.03A2.47 2.47 0 0 1 95.54 7.9c2.2 0 2.938 1.408 2.938 3.408v5.032H96.04v-4.86c0-.938-.484-1.39-1.22-1.39s-1.218.452-1.218 1.39v4.86h-2.437V8.247h2.25z"/></svg>