<svg id="Layer_1" data-name="Layer 1" xmlns="http://www.w3.org/2000/svg" viewBox="0 0 102.856 55.182"><defs><style>.cls-1{fill:#fff}.cls-2{fill:#fbd802}</style></defs><title>logo</title><path class="cls-1" d="M7.23 23.643v10.58H3.9v-10.58H.57v-2.97h9.99v2.97zm13.608 10.58l-.628-2.02h-4.167l-.666 2.016h-3.484l4.93-13.55h2.57l4.927 13.55zm-2.645-8.41l-1.218 3.614h2.36zm9.4 8.41v-13.55h3.33v10.58h5.69v2.97zm12.87 0v-13.55h9.21v2.97h-5.88V25.9h5.023v2.97h-5.023v2.377h5.88v2.972zm21.147 0l-4.34-6.813v6.812h-3.33V20.674h2.912l4.34 6.813v-6.813h3.33v13.548zm13.418-10.58v10.58h-3.33v-10.58h-3.33v-2.97h9.99v2.97zM8.943 55.068l-.628-2.017H4.148l-.666 2.02H0l4.928-13.55h2.565l4.928 13.55zm-2.65-8.41L5.08 50.273h2.36zm18.087 7.078a5.044 5.044 0 0 1-3.654 1.332h-5.024V41.52h5.023a5.044 5.044 0 0 1 3.653 1.332c1.58 1.58 1.408 3.31 1.408 5.442s.172 3.863-1.407 5.442zm-2.287-8.487a1.727 1.727 0 0 0-1.6-.77h-1.46v7.62h1.46a1.727 1.727 0 0 0 1.6-.76c.267-.38.362-.742.362-3.044.002-2.287-.093-2.667-.362-3.048zM35.38 55.06h-2.47l-4.474-13.54h3.444l2.284 7.573 2.245-7.573h3.46zm7.77 0V41.52h3.33v13.548zm11.837.114a6.606 6.606 0 0 1-5.137-1.79l2.13-2.13a4.41 4.41 0 0 0 3.026.95c1.313 0 1.94-.436 1.94-1.217a1.13 1.13 0 0 0-.265-.8 1.51 1.51 0 0 0-.89-.36l-1.64-.234a4.582 4.582 0 0 1-2.72-1.2 3.748 3.748 0 0 1-.93-2.72c0-2.476 1.866-4.283 4.948-4.283a6.016 6.016 0 0 1 4.566 1.617l-2.092 2.096a3.345 3.345 0 0 0-2.57-.8c-1.16 0-1.635.664-1.635 1.254a.89.89 0 0 0 .27.627 1.518 1.518 0 0 0 .934.4l1.637.23a4.557 4.557 0 0 1 2.664 1.122 3.943 3.943 0 0 1 1.01 2.965c0 2.764-2.38 4.267-5.233 4.267zm17.833-1.52a5.47 5.47 0 0 1-7.573 0c-1.427-1.428-1.37-3.33-1.37-5.366s-.057-3.94 1.37-5.365a5.47 5.47 0 0 1 7.573 0c1.427 1.423 1.37 3.33 1.37 5.362s.057 3.938-1.37 5.365zm-2.455-8.7a1.8 1.8 0 0 0-2.664 0c-.3.4-.49.855-.49 3.33s.19 2.91.5 3.31a1.762 1.762 0 0 0 2.663 0c.3-.4.495-.836.495-3.31s-.19-2.927-.494-3.327zm14.885 10.11l-2.4-5.043h-1.12v5.042H78.4V41.52h5.366a4.33 4.33 0 0 1 4.627 4.357 3.9 3.9 0 0 1-2.207 3.54l2.93 5.65zm-1.636-10.56H81.73v2.74h1.884a1.372 1.372 0 1 0 0-2.74zm15.15 5.04v5.52h-3.33V49.55l-4.09-8.03h3.634l2.13 4.87 2.113-4.87h3.64z"/><path class="cls-2" d="M7.23 2.97v10.578H3.9V2.968H.57V.003h9.99V2.97zm14.027 10.578L18.86 8.502h-1.123v5.042h-3.33V.002h5.366a4.33 4.33 0 0 1 4.62 4.356 3.9 3.9 0 0 1-2.2 3.54l2.93 5.65zM19.62 2.988h-1.883v2.74h1.884a1.372 1.372 0 1 0 0-2.74zm13.99 10.675a4.835 4.835 0 0 1-5.117-4.872V.01h3.33v8.71a1.736 1.736 0 0 0 1.79 1.98 1.763 1.763 0 0 0 1.826-1.98V0h3.33v8.79a4.867 4.867 0 0 1-5.16 4.87zm9.578-.115V.002h9.205V2.97h-5.88v2.263h5.023v2.97h-5.02v2.377h5.877v2.97z"/></svg>