<svg data-name="Layer 1" xmlns="http://www.w3.org/2000/svg" width="2.017in" height="2.017in" viewBox="0 0 145.237 145.238"><title>logo</title><g data-name="&amp;lt;Group&amp;gt;"><g data-name="&amp;lt;Group&amp;gt;"><g data-name="&amp;lt;Group&amp;gt;"><g data-name="&amp;lt;Group&amp;gt;"><path data-name="&amp;lt;Path&amp;gt;" fill="#010101" d="M1.737 1.738H45.08V.494H.494V45.08h1.243V1.738"/><path data-name="&amp;lt;Compound Path&amp;gt;" d="M2.232 45.574H0V0h45.574v2.232H2.232zm-1.243-.99h.253V1.244h43.34V.99H.99z" fill="#231f20"/></g><g data-name="&amp;lt;Group&amp;gt;"><path data-name="&amp;lt;Path&amp;gt;" fill="#010101" d="M143.5 1.738V45.08h1.243V.494h-44.585v1.244H143.5"/><path data-name="&amp;lt;Compound Path&amp;gt;" d="M145.238 45.574h-2.232V2.232H99.664V0h45.574zm-1.243-.99h.255V.99h-43.6v.254h43.345z" fill="#231f20"/></g></g><g data-name="&amp;lt;Group&amp;gt;"><g data-name="&amp;lt;Group&amp;gt;"><path data-name="&amp;lt;Path&amp;gt;" fill="#010101" d="M143.5 143.5h-43.342v1.244h44.585v-44.586H143.5V143.5"/><path data-name="&amp;lt;Compound Path&amp;gt;" d="M145.238 145.24H99.664v-2.233h43.342V99.664h2.232zm-44.585-.99h43.6v-43.6h-.258v43.345h-43.342z" fill="#231f20"/></g><g data-name="&amp;lt;Group&amp;gt;"><path data-name="&amp;lt;Path&amp;gt;" fill="#010101" d="M1.737 143.5v-43.342H.494v44.586H45.08V143.5H1.737"/><path data-name="&amp;lt;Compound Path&amp;gt;" d="M45.574 145.24H0V99.663h2.232v43.342h43.342zM.99 144.25h43.6v-.255H1.243v-43.342H.99z" fill="#231f20"/></g></g></g><path data-name="&amp;lt;Compound Path&amp;gt;" d="M50.873 30.94c-2.543 0-4.21 1.016-4.21 2.71 0 5.143 11.132 2.46 11.1 9.635 0 3.277-2.91 5.4-7.147 5.4a11.287 11.287 0 0 1-7.57-3.023l1.016-1.95a9.937 9.937 0 0 0 6.583 2.77c2.854 0 4.634-1.16 4.634-3.08.026-5.284-11.1-2.487-11.1-9.58 0-3.107 2.74-5.084 6.835-5.084a11.7 11.7 0 0 1 6.272 1.836l-.96 2.006a10.414 10.414 0 0 0-5.455-1.64zm21.363 10.792v6.863h-2.232v-6.807L62.348 28.82h2.347l6.413 10.37 6.327-10.37h2.317zM88.063 28.82L99.93 44.895V28.82h2.23v19.775h-2.316L87.978 32.55v16.045h-2.26V28.82zM57.626 62.73v2.092h-6.47v17.686h-2.26V64.82h-6.442v-2.09zm8.37 0v8.957h11.92V62.73h2.26v19.78h-2.26v-8.76h-11.92v8.76h-2.26V62.73zm36.42 0v2.092h-11.16v6.64h9.973v2.062h-9.975v6.894h11.528v2.09h-13.79V62.732zM50.873 98.76c-2.543 0-4.21 1.018-4.21 2.713 0 5.142 11.132 2.458 11.1 9.634 0 3.277-2.91 5.4-7.147 5.4a11.287 11.287 0 0 1-7.57-3.023l1.016-1.95a9.937 9.937 0 0 0 6.583 2.77c2.854 0 4.634-1.16 4.634-3.08.026-5.284-11.1-2.487-11.1-9.58 0-3.107 2.74-5.084 6.835-5.084a11.7 11.7 0 0 1 6.272 1.836l-.96 2.006a10.414 10.414 0 0 0-5.455-1.64zm16.617-2.118v19.777h-2.26V96.64zm14.553 2.118c-2.543 0-4.21 1.018-4.21 2.713 0 5.142 11.132 2.458 11.1 9.634 0 3.277-2.91 5.4-7.148 5.4a11.29 11.29 0 0 1-7.572-3.023l1.018-1.95a9.937 9.937 0 0 0 6.585 2.77c2.854 0 4.634-1.16 4.634-3.08.027-5.284-11.1-2.487-11.1-9.58 0-3.107 2.74-5.084 6.836-5.084a11.7 11.7 0 0 1 6.272 1.836l-.962 2a10.414 10.414 0 0 0-5.452-1.635z" fill="#010101"/></g></svg>