<svg id="Layer_1" data-name="Layer 1" xmlns="http://www.w3.org/2000/svg" viewBox="0 0 396.021 43.918"><defs><style>.cls-1{fill:#231f20}</style></defs><title>true-logo</title><g id="_Group_" data-name="&amp;lt;Group&amp;gt;"><g id="_Group_2" data-name="&amp;lt;Group&amp;gt;"><g id="_Group_3" data-name="&amp;lt;Group&amp;gt;"><path id="_Path_" data-name="&amp;lt;Path&amp;gt;" class="cls-1" d="M43.92 43.918H26.352v-26.35H0V0h43.92v43.918z"/></g><g id="_Group_4" data-name="&amp;lt;Group&amp;gt;"><path id="_Path_2" data-name="&amp;lt;Path&amp;gt;" class="cls-1" d="M52.704 0h17.568v17.567H52.704z"/></g></g><g id="_Group_5" data-name="&amp;lt;Group&amp;gt;"><path id="_Compound_Path_" data-name="&amp;lt;Compound Path&amp;gt;" class="cls-1" d="M110.176 20.145h-11v12.5c0 3.867 2.038 5.366 4.556 5.366a11.507 11.507 0 0 0 5.786-1.94l2.488 5.005a15.512 15.512 0 0 1-8.814 2.848c-6.505 0-10.312-3.506-10.312-11.15V20.15h-5.727v-5.7h5.726V5.76h6.3v8.694h11z"/><path id="_Compound_Path_2" data-name="&amp;lt;Compound Path&amp;gt;" class="cls-1" d="M137.183 14.51l-1.5 6.2a11.194 11.194 0 0 0-4.767-1.05c-3.987 0-6.835 2.82-6.835 7.7v15.8h-6.26V14.45h6.208v3.237c1.89-2.728 4.828-3.986 8.335-3.986a12.538 12.538 0 0 1 4.828.81z"/><path id="_Compound_Path_3" data-name="&amp;lt;Compound Path&amp;gt;" class="cls-1" d="M169.587 30.997c0 9.143-6.6 12.92-13.31 12.92-6.745 0-13.31-3.778-13.31-12.92V14.45h6.3v15.972c0 5.546 3.088 7.584 7.015 7.584s7.015-2.038 7.015-7.584V14.45h6.3z"/><path id="_Compound_Path_4" data-name="&amp;lt;Compound Path&amp;gt;" class="cls-1" d="M204.927 28.778c0 .81-.06 1.62-.12 2.338h-21.223c.84 5.156 4.467 7.314 8.543 7.314a13.723 13.723 0 0 0 8.3-3.028l3.117 4.466a17.3 17.3 0 0 1-11.81 4.047c-8.6 0-14.69-5.995-14.69-15.108 0-8.992 5.847-15.107 14.3-15.107 8.037 0 13.553 6.116 13.583 15.078zM183.61 26.35h14.9c-.69-4.466-3.3-7.074-7.284-7.074-4.465 0-6.953 2.878-7.616 7.074z"/><path id="_Compound_Path_5" data-name="&amp;lt;Compound Path&amp;gt;" class="cls-1" d="M232.235 21.644a18.525 18.525 0 0 0-8.874-2.458c-3.41 0-5.42 1.38-5.42 3.417 0 2.008 2.1 2.578 4.74 2.968l2.967.45c6.266.9 9.983 3.57 9.983 8.49 0 5.515-4.8 9.38-13.07 9.38-2.97 0-8.125-.57-12.32-3.686l2.906-4.706c2.068 1.59 4.8 2.938 9.472 2.938 4.287 0 6.536-1.35 6.536-3.505 0-1.62-1.56-2.7-4.975-3.18l-3-.39c-6.357-.87-9.745-3.807-9.745-8.423 0-5.7 4.556-9.2 11.87-9.2a21.82 21.82 0 0 1 11.63 3.027z"/><path id="_Compound_Path_6" data-name="&amp;lt;Compound Path&amp;gt;" class="cls-1" d="M268.805 28.778c0 .81-.06 1.62-.12 2.338H247.46c.84 5.156 4.468 7.314 8.544 7.314a13.723 13.723 0 0 0 8.3-3.028l3.117 4.466a17.3 17.3 0 0 1-11.81 4.047c-8.6 0-14.68-5.995-14.68-15.108 0-8.992 5.845-15.107 14.3-15.107 8.036 0 13.552 6.116 13.582 15.078zM247.49 26.35h14.9c-.688-4.466-3.3-7.074-7.283-7.074-4.468 0-6.956 2.878-7.616 7.074z"/><path id="_Compound_Path_7" data-name="&amp;lt;Compound Path&amp;gt;" class="cls-1" d="M304.146 43.167h-6.265v-3.445a10.893 10.893 0 0 1-9.02 4.2c-8.03 0-14.36-6.325-14.36-15.108s6.33-15.107 14.36-15.107a10.913 10.913 0 0 1 9.028 4.226V14.45h6.266zm-23.2-14.36c0 5.037 3.268 9.2 8.663 9.2 5.18 0 8.66-3.956 8.66-9.2s-3.48-9.2-8.668-9.2c-5.4 0-8.667 4.165-8.667 9.2z"/><path id="_Compound_Path_8" data-name="&amp;lt;Compound Path&amp;gt;" class="cls-1" d="M333.34 14.51l-1.5 6.2a11.194 11.194 0 0 0-4.766-1.05c-3.987 0-6.835 2.82-6.835 7.7v15.8h-6.27V14.45h6.202v3.237C322.06 14.96 325 13.7 328.506 13.7a12.538 12.538 0 0 1 4.83.81z"/><path id="_Compound_Path_9" data-name="&amp;lt;Compound Path&amp;gt;" class="cls-1" d="M362.298 18.287l-4.017 4.286a9.625 9.625 0 0 0-6.89-2.968c-4.823 0-8.48 3.777-8.48 9.2s3.657 9.2 8.484 9.2a10.448 10.448 0 0 0 7.045-3l3.866 4.317a13.824 13.824 0 0 1-10.73 4.586c-9.143 0-15.11-6.5-15.11-15.108s5.964-15.107 15.107-15.107a13.735 13.735 0 0 1 10.73 4.594z"/><path id="_Compound_Path_10" data-name="&amp;lt;Compound Path&amp;gt;" class="cls-1" d="M375.61 17.868a10.252 10.252 0 0 1 8.753-4.167c6.835 0 11.662 4.71 11.662 11.43v18.04h-6.3V27.19c0-4.826-2.49-7.524-6.685-7.524-4.047 0-7.435 2.67-7.435 7.584v15.917h-6.3V.002h6.3z"/></g></g></svg>