<svg id="Layer_1" xmlns="http://www.w3.org/2000/svg" width="146" height="48" viewBox="0 0 146 48"><style>.st0{fill:#231f20}</style><path class="st0" d="M135.3 39.7h-12.4c-1.1 0-2-.9-2-2s.9-2 2-2h12.4c1.1 0 2 .9 2 2s-.9 2-2 2zm0 7.1h-12.4c-1.1 0-2-.9-2-2s.9-2 2-2h12.4c1.1 0 2 .9 2 2s-.9 2-2 2zM1 4.1c-.2-.5 2.1-2.6 4.6-2.6 2.1 0 3.8 1 4.9 4.4L16.6 24 23 6c1.1-3.5 2.9-4.4 4.8-4.4 2.7 0 4.9 2.1 4.7 2.6l-10.8 26c-.7 1.8-2.9 2.3-4.9 2.3s-4.1-.4-4.9-2.2L1 4.1zm35.3 1.7c0-3.1 1.7-4.2 3.9-4.2h.9c2.3 0 3.9 1 3.9 4.2v22.3c0 3.1-1.6 4.1-3.8 4.1h-.9c-2.3 0-4-.9-4-4.1V5.8zM52 22.6c2.1 2.2 5.5 4 9.9 4 3.4 0 5.3-1 5.3-2.9 0-2.3-2.4-2.7-6.5-3.5-4.1-.9-10.6-2.3-10.6-9.1 0-5.9 4.9-9.8 12.6-9.8 8.1 0 12.2 3 12.2 6.4 0 2.3-2.7 3.9-2.8 3.7-2-2.3-5.3-4-8.8-4-3.3 0-5.1 1-5.1 3 0 2.2 2.4 2.5 6.4 3.4 4.3.9 11.1 2.3 11.1 9.2 0 6-5 9.8-13.3 9.8-8.8 0-13.1-3.1-13.1-6.5.1-2.4 2.5-3.9 2.7-3.7zM94.6 1.2c8.9 0 15 6.2 15 15.1v.6c-.1 1.5-.5 2.4-2.1 2.4H86.7c.6 4.5 4.1 7.2 8.8 7.2 4.6 0 7.1-2 8.5-4.4.1-.1 4.2.4 4.2 3.9 0 3.3-4.6 6.9-13 6.9-9.8 0-16.3-6.1-16.3-15.6 0-9.3 6.6-16.1 15.7-16.1zm6.9 13.1c-.2-4.2-2.8-7-7-7-4.1 0-7.2 2.9-7.8 7h14.8zM129 1.2c9.5 0 16.1 6.5 16.1 15.9s-6.5 15.7-16.2 15.7c-9.6 0-16.1-6.4-16.1-15.9 0-9.2 6.6-15.7 16.2-15.7zm-.1 24.8c4.8 0 8.4-3.8 8.4-8.9 0-5.2-3.5-9.1-8.4-9.1s-8.5 3.8-8.5 9c.1 5.2 3.7 9 8.5 9z"/></svg>